<svg xmlns="http://www.w3.org/2000/svg" viewBox="0 0 500 400" width="500" height="400">
  <!-- Fondo con gradiente -->
  <defs>
    <linearGradient id="grad1" x1="0%" y1="0%" x2="100%" y2="100%">
      <stop offset="0%" style="stop-color:#00bfff;stop-opacity:0.2" />
      <stop offset="100%" style="stop-color:#ff4500;stop-opacity:0.1" />
    </linearGradient>
  </defs>
  <rect width="500" height="400" fill="url(#grad1)" rx="20" ry="20" />
  
  <!-- Edificio empresarial moderno -->
  <rect x="150" y="100" width="200" height="200" fill="#333" />
  
  <!-- Ventanas -->
  <g fill="#00bfff" opacity="0.7">
    <rect x="170" y="120" width="30" height="20" />
    <rect x="210" y="120" width="30" height="20" />
    <rect x="250" y="120" width="30" height="20" />
    <rect x="290" y="120" width="30" height="20" />
    
    <rect x="170" y="150" width="30" height="20" />
    <rect x="210" y="150" width="30" height="20" />
    <rect x="250" y="150" width="30" height="20" />
    <rect x="290" y="150" width="30" height="20" />
    
    <rect x="170" y="180" width="30" height="20" />
    <rect x="210" y="180" width="30" height="20" />
    <rect x="250" y="180" width="30" height="20" />
    <rect x="290" y="180" width="30" height="20" />
    
    <rect x="170" y="210" width="30" height="20" />
    <rect x="210" y="210" width="30" height="20" />
    <rect x="250" y="210" width="30" height="20" />
    <rect x="290" y="210" width="30" height="20" />
    
    <rect x="170" y="240" width="30" height="20" />
    <rect x="210" y="240" width="30" height="20" />
    <rect x="250" y="240" width="30" height="20" />
    <rect x="290" y="240" width="30" height="20" />
  </g>
  
  <!-- Puerta -->
  <rect x="230" y="270" width="40" height="30" fill="#222" />
  
  <!-- Elementos decorativos -->
  <circle cx="100" cy="80" r="15" fill="#7b68ee" opacity="0.5" />
  <circle cx="400" cy="100" r="20" fill="#00bfff" opacity="0.5" />
  <circle cx="120" cy="350" r="25" fill="#ff4500" opacity="0.3" />
  <circle cx="380" cy="320" r="18" fill="#7b68ee" opacity="0.4" />
  
  <!-- Gráfico de crecimiento -->
  <polyline points="50,300 80,280 110,290 140,260 170,250" stroke="#ff4500" stroke-width="3" fill="none" />
  <circle cx="50" cy="300" r="5" fill="#ff4500" />
  <circle cx="80" cy="280" r="5" fill="#ff4500" />
  <circle cx="110" cy="290" r="5" fill="#ff4500" />
  <circle cx="140" cy="260" r="5" fill="#ff4500" />
  <circle cx="170" cy="250" r="5" fill="#ff4500" />
  
  <!-- Texto -->
  <text x="250" y="330" font-family="Arial" font-size="16" font-weight="bold" text-anchor="middle" fill="#fff">Empresas Privadas</text>
</svg>