<svg xmlns="http://www.w3.org/2000/svg" viewBox="0 0 500 400" width="500" height="400">
  <!-- Fondo con gradiente -->
  <defs>
    <linearGradient id="grad1" x1="0%" y1="0%" x2="100%" y2="100%">
      <stop offset="0%" style="stop-color:#7b68ee;stop-opacity:0.2" />
      <stop offset="100%" style="stop-color:#00bfff;stop-opacity:0.1" />
    </linearGradient>
  </defs>
  <rect width="500" height="400" fill="url(#grad1)" rx="20" ry="20" />
  
  <!-- Edificio gubernamental estilo clásico -->
  <rect x="150" y="150" width="200" height="150" fill="#333" />
  
  <!-- Columnas -->
  <rect x="170" y="150" width="20" height="150" fill="#444" />
  <rect x="210" y="150" width="20" height="150" fill="#444" />
  <rect x="250" y="150" width="20" height="150" fill="#444" />
  <rect x="290" y="150" width="20" height="150" fill="#444" />
  
  <!-- Techo triangular -->
  <polygon points="150,150 250,100 350,150" fill="#555" />
  
  <!-- Escaleras -->
  <rect x="200" y="280" width="100" height="20" fill="#222" />
  
  <!-- Bandera -->
  <rect x="245" y="80" width="10" height="40" fill="#666" />
  <rect x="255" y="80" width="30" height="20" fill="#00bfff" />
  
  <!-- Elementos decorativos -->
  <circle cx="100" cy="80" r="15" fill="#7b68ee" opacity="0.5" />
  <circle cx="400" cy="100" r="20" fill="#00bfff" opacity="0.5" />
  <circle cx="120" cy="350" r="25" fill="#ff4500" opacity="0.3" />
  <circle cx="380" cy="320" r="18" fill="#7b68ee" opacity="0.4" />
  
  <!-- Texto -->
  <text x="250" y="330" font-family="Arial" font-size="16" font-weight="bold" text-anchor="middle" fill="#fff">Instituciones Públicas</text>
</svg>