<svg xmlns="http://www.w3.org/2000/svg" width="1297" height="809" viewBox="0 0 1297 809" version="1.1"><path d="" stroke="none" fill="#64ccec" fill-rule="evenodd"/><path d="M 672.338 246.094 C 637.516 250.153, 609.221 263.399, 587.936 285.608 C 567.283 307.158, 555.502 333.475, 553.153 363.312 C 549.234 413.073, 570.896 459.735, 609.663 485.043 C 638.646 503.963, 684.438 509.055, 735.040 498.985 C 743.037 497.393, 750.635 495.701, 751.925 495.223 L 754.270 494.356 760.094 476.928 L 765.918 459.500 763.209 457.201 C 761.719 455.936, 759.789 454.498, 758.919 454.006 L 757.338 453.111 752.419 456.641 C 741.334 464.597, 729.690 469.020, 710.500 472.564 L 701.500 474.226 687.500 473.720 C 668.957 473.049, 658.336 470.143, 643.500 461.679 C 633.865 456.181, 619.650 441.832, 613.677 431.573 C 594.930 399.376, 593.119 349.465, 609.500 316.451 C 619.773 295.745, 635.755 282.355, 658.537 275.365 L 667.500 272.615 686.500 272.603 L 705.500 272.591 713.500 275.270 C 724.388 278.916, 733.030 284.210, 741.222 292.250 L 748.098 299 752.510 299 L 756.923 299 757.987 294.750 C 758.573 292.413, 761.126 283.750, 763.660 275.500 C 766.195 267.250, 768.470 259.571, 768.716 258.435 L 769.162 256.370 758.331 253.216 C 744.003 249.045, 739.645 248.129, 726.038 246.431 C 713.708 244.892, 684.240 244.707, 672.338 246.094 M 305.435 253.500 C 304.745 255.150, 302.618 259.927, 300.708 264.115 L 297.237 271.730 305.267 272.281 L 313.297 272.831 315.882 274.761 C 317.304 275.823, 319.120 278.673, 319.917 281.096 L 321.367 285.500 322.022 360 L 322.676 434.500 324.330 441.460 C 326.782 451.780, 327.851 454.734, 332.176 463.139 C 339.981 478.306, 352.326 488.684, 372.134 496.730 C 387.711 503.058, 398.064 505.038, 419 505.695 L 436.500 506.244 448 504.561 C 475.980 500.466, 499.335 488.231, 512.568 470.736 C 522.433 457.695, 528.055 442.042, 530.011 422.166 C 530.588 416.300, 531.488 381.575, 532.010 345 L 532.959 278.500 534.435 267.500 C 535.246 261.450, 536.155 255.148, 536.454 253.495 L 536.999 250.490 513.125 250.490 C 497.586 250.490, 489.363 250.841, 489.571 251.495 C 492.680 261.262, 494.282 268.243, 495.619 277.853 L 497.240 289.500 497.098 348.500 C 496.957 407.279, 496.308 422.452, 493.458 433.620 C 488.317 453.762, 474.159 466.777, 450.500 473.109 L 442.500 475.251 428 475.282 L 413.500 475.312 404.678 472.640 C 378.052 464.573, 366.257 450.229, 362.922 421.861 L 361.703 411.500 362.361 343 C 362.943 282.428, 363.560 264.811, 365.494 253.457 L 366.013 250.414 336.352 250.457 L 306.691 250.500 305.435 253.500 M 785.538 260.500 C 783.029 266, 780.982 270.778, 780.988 271.118 C 780.995 271.459, 784.405 271.955, 788.566 272.223 L 796.132 272.708 798.816 274.700 C 800.292 275.795, 802.175 278.448, 803 280.596 L 804.500 284.500 804.500 376 L 804.500 467.500 802.714 480 C 801.732 486.875, 800.680 494.075, 800.377 496 L 799.825 499.500 826.413 499.500 C 841.036 499.500, 853 499.490, 853 499.477 C 853 499.464, 851.923 495.189, 850.607 489.977 C 849.291 484.765, 847.603 476.225, 846.857 471 L 845.500 461.500 845.500 368.833 C 845.500 317.866, 845.793 275.873, 846.152 275.515 C 847.530 274.137, 872.796 273.700, 879.123 274.945 C 892.134 277.504, 901.647 284.576, 906.564 295.344 L 909.233 301.189 909.741 309.344 C 910.604 323.218, 906.922 334.790, 898.862 343.534 C 891.257 351.785, 880.801 355.660, 863.476 356.649 L 852.364 357.284 850.556 366.392 C 849.562 371.401, 848.540 376.669, 848.284 378.097 L 847.818 380.694 854.493 381.317 C 865 382.298, 868.119 384.848, 882.236 404 C 900.323 428.539, 921.604 461.479, 932.949 482.500 C 935.323 486.900, 938.894 493.119, 940.883 496.319 L 944.500 502.139 949 501.549 C 951.475 501.225, 963.935 500.672, 976.689 500.322 L 999.878 499.684 1000.538 495.775 C 1000.901 493.624, 1001.041 491.766, 1000.849 491.644 C 1000.657 491.522, 997.261 488.821, 993.303 485.641 C 979.554 474.597, 968.825 460.848, 933.494 409 C 920.939 390.575, 909.586 374.068, 908.266 372.317 L 905.865 369.134 908.183 367.723 C 909.457 366.946, 914.081 364.126, 918.459 361.454 C 934.717 351.533, 945.018 338.976, 949.595 323.500 L 951.370 317.500 951.398 306.500 L 951.426 295.500 949.628 289.552 C 944.022 271.015, 932.767 259.131, 915.098 253.095 L 907.500 250.500 848.799 250.500 L 790.098 250.500 785.538 260.500 M 596 536.674 C 510.080 539.018, 408.095 547.993, 313 561.580 C 290.949 564.731, 250.808 571.109, 243.750 572.584 L 241 573.159 241 579.718 L 241 586.276 247.250 585.660 C 269.246 583.493, 346.414 578.123, 392.500 575.553 C 474.198 570.998, 536.398 569.028, 620.500 568.332 C 765.351 567.135, 922.641 573.107, 1033.653 584.019 C 1044.737 585.109, 1054.299 586, 1054.903 586 C 1055.585 586, 1056 583.574, 1056 579.583 L 1056 573.166 1050.915 572.075 C 983.583 557.635, 875.459 544.715, 778.500 539.525 C 721.993 536.499, 645.949 535.312, 596 536.674" stroke="none" fill="#64c4ec" fill-rule="evenodd"/></svg>